<svg width="51" height="47" viewBox="0 0 51 47" fill="none" xmlns="http://www.w3.org/2000/svg">
<path opacity="0.6" fill-rule="evenodd" clip-rule="evenodd" d="M24.3999 0.335227C23.5858 0.676852 20.0959 2.22048 19.1627 2.65185C19.0252 2.71548 17.5627 3.35473 15.9127 4.0726C14.2627 4.79048 12.6033 5.51898 12.2252 5.6916C11.8471 5.86423 10.7502 6.35048 9.78769 6.7721C8.82519 7.19373 7.72831 7.67848 7.35019 7.84923C6.97206 8.0201 5.17206 8.82148 3.35019 9.62998L0.0376878 11.1L0.00593804 27.5734C-0.014312 38.1195 0.0176878 44.0317 0.0949378 44.005C0.161313 43.982 1.10369 43.2006 2.18919 42.2687C3.27456 41.3367 5.11894 39.7562 6.28769 38.7562C7.45644 37.7564 9.53769 35.9663 10.9127 34.7786C12.2877 33.5907 13.7221 32.3588 14.1002 32.041C15.0487 31.2436 19.1483 27.7314 19.2252 27.6504C19.2596 27.6141 19.6691 27.2535 20.1353 26.849L20.9828 26.1134L20.1353 25.5521C18.1607 24.2444 14.0873 21.6547 9.41269 18.735C6.66269 17.0175 4.13481 15.4257 3.79519 15.1979L3.17769 14.7835L3.85769 14.4785C4.79706 14.0572 7.97631 12.6897 12.9127 10.5839C16.1833 9.1886 20.7761 7.19273 21.5063 6.84948C21.8673 6.67973 22.8918 6.23235 23.7828 5.8551C25.2892 5.21748 25.4297 5.1806 25.7828 5.33035C27.5122 6.06323 34.4438 9.04685 35.5377 9.52898C37.0904 10.2135 41.0321 11.914 42.9127 12.7107C43.6002 13.002 44.4439 13.3687 44.7877 13.5257C45.1314 13.6826 45.8627 14.0035 46.4127 14.2386C46.9627 14.4737 47.4554 14.7082 47.5078 14.7597C47.5602 14.8112 46.6039 15.4634 45.3828 16.2089C44.1617 16.9544 42.0377 18.2764 40.6627 19.1467C39.2877 20.017 37.5843 21.091 36.8773 21.5335C34.2124 23.2015 33.6132 23.5844 31.7564 24.8044C30.7081 25.4934 29.8502 26.0939 29.8502 26.139C29.8502 26.1841 30.8767 27.0739 32.1314 28.1164C33.3862 29.159 34.5533 30.142 34.7252 30.3009C34.8971 30.4599 35.6564 31.1214 36.4127 31.7709C37.1689 32.4205 38.5752 33.631 39.5377 34.461C40.5002 35.2911 42.3283 36.8676 43.6002 37.9644C46.2012 40.2072 49.7206 43.2801 50.2877 43.8035C50.4939 43.9937 50.6908 44.1497 50.7252 44.15C50.7596 44.1503 50.7732 36.7359 50.7556 27.6734L50.7233 11.196L50.2556 10.969C49.5362 10.6197 43.2326 7.77423 40.2252 6.4411C38.7471 5.78585 36.6658 4.8561 35.6002 4.37485C34.5346 3.89373 33.2689 3.34085 32.7877 3.1461C32.3064 2.95148 31.2658 2.50085 30.4752 2.14485C28.9594 1.46235 26.0946 0.204477 25.6499 0.026227C25.4601 -0.049898 25.1137 0.0357266 24.3999 0.335227ZM21.7171 29.1281C20.7844 29.9311 19.3517 31.1506 18.5332 31.8381C16.5878 33.4721 11.0469 38.2174 9.85019 39.2745C9.33456 39.7299 7.95644 40.9342 6.78769 41.9509C5.61894 42.9675 4.10294 44.2861 3.41881 44.8812C2.73469 45.4762 2.00344 46.1161 1.79381 46.3032L1.41269 46.6432L25.4127 46.6441C48.1728 46.645 49.3988 46.6339 49.1431 46.4291C48.8666 46.2076 46.8964 44.5057 43.4752 41.5332C42.4096 40.6075 40.3564 38.8047 38.9127 37.5274C37.4689 36.25 35.4207 34.4754 34.3609 33.584C32.5239 32.0386 29.6106 29.5655 28.0713 28.2447L27.3549 27.63L26.3666 28.3266L25.3782 29.0231L24.4384 28.3369C23.9216 27.9595 23.4793 27.6545 23.4557 27.6594C23.4321 27.6641 22.6497 28.3251 21.7171 29.1281Z" fill="black"/>
</svg>
